<svg width="23" height="23" viewBox="0 0 23 23" fill="none" xmlns="http://www.w3.org/2000/svg">
<path fill-rule="evenodd" clip-rule="evenodd" d="M11.5 2.15625C6.34133 2.15625 2.15625 6.34133 2.15625 11.5C2.15625 16.6587 6.34133 20.8438 11.5 20.8438C16.6587 20.8438 20.8438 16.6587 20.8438 11.5C20.8438 6.34133 16.6587 2.15625 11.5 2.15625ZM11.5 3.59375C15.8648 3.59375 19.4062 7.13524 19.4062 11.5C19.4062 15.8648 15.8648 19.4062 11.5 19.4062C7.13524 19.4062 3.59375 15.8648 3.59375 11.5C3.59375 7.13524 7.13524 3.59375 11.5 3.59375ZM16.2748 7.3559C15.9708 7.10058 15.5175 7.14001 15.2621 7.44396L9.75627 13.9985L7.72174 11.7379L7.71072 11.726C7.44377 11.4423 6.99769 11.4226 6.70668 11.6845C6.41163 11.9501 6.38771 12.4045 6.65326 12.6996L9.24076 15.5746L9.25128 15.586C9.54501 15.8989 10.0478 15.8864 10.3254 15.556L16.3629 8.36854L16.373 8.35614C16.6171 8.05238 16.5746 7.60777 16.2748 7.3559Z" fill="#F74D18"/>
</svg>
