<svg width="104" height="104" viewBox="0 0 104 104" fill="none" xmlns="http://www.w3.org/2000/svg">
<path d="M43.7 45V14" stroke="#F74D18" stroke-width="2" stroke-miterlimit="10" stroke-linecap="round" stroke-linejoin="round"/>
<path d="M59 14V60.4" stroke="#F74D18" stroke-width="2" stroke-miterlimit="10" stroke-linecap="round" stroke-linejoin="round"/>
<path d="M74.3999 14V60.4" stroke="#F74D18" stroke-width="2" stroke-miterlimit="10" stroke-linecap="round" stroke-linejoin="round"/>
<path d="M89.7 14V60.4" stroke="#F74D18" stroke-width="2" stroke-miterlimit="10" stroke-linecap="round" stroke-linejoin="round"/>
<path d="M89.7 14H43.8" stroke="#F74D18" stroke-width="2" stroke-miterlimit="10" stroke-linecap="round" stroke-linejoin="round"/>
<path d="M89.7 29.5H43.8" stroke="#F74D18" stroke-width="2" stroke-miterlimit="10" stroke-linecap="round" stroke-linejoin="round"/>
<path d="M89.7 45H43.8" stroke="#F74D18" stroke-width="2" stroke-miterlimit="10" stroke-linecap="round" stroke-linejoin="round"/>
<path d="M89.7 60.4004H59" stroke="#F74D18" stroke-width="2" stroke-miterlimit="10" stroke-linecap="round" stroke-linejoin="round"/>
<path d="M74.4001 29.5H59.1001V45H74.4001V29.5Z" fill="#F74D18"/>
<path d="M59 14H43.7V29.5H59V14Z" fill="#F74D18"/>
<path d="M59 45H15V89H59V45Z" stroke="#F74D18" stroke-width="2" stroke-miterlimit="10" stroke-linecap="round" stroke-linejoin="round"/>
<path d="M34.8 58.9004C34.2 59.1004 33.6 59.3004 33 59.7004" stroke="#F74D18" stroke-width="2" stroke-miterlimit="10" stroke-linecap="round" stroke-linejoin="round"/>
<path d="M45.0999 64.7004C44.8999 64.1004 44.6999 63.5004 44.3999 62.9004" stroke="#F74D18" stroke-width="2" stroke-miterlimit="10" stroke-linecap="round" stroke-linejoin="round"/>
<path d="M41.1999 74.4004C40.6999 74.7004 40.0999 75.0004 39.3999 75.2004" stroke="#F74D18" stroke-width="2" stroke-miterlimit="10" stroke-linecap="round" stroke-linejoin="round"/>
<path d="M29.7 71.1009C29.4 70.6009 29.1 70.0008 29 69.3008" stroke="#F74D18" stroke-width="2" stroke-miterlimit="10" stroke-linecap="round" stroke-linejoin="round"/>
<path d="M29.7 62.9004C29.4 63.4004 29.1 64.1004 29 64.7004" stroke="#F74D18" stroke-width="2" stroke-miterlimit="10" stroke-linecap="round" stroke-linejoin="round"/>
<path d="M34.8 75.2004C34.2 75.0004 33.6 74.8004 33 74.4004" stroke="#F74D18" stroke-width="2" stroke-miterlimit="10" stroke-linecap="round" stroke-linejoin="round"/>
<path d="M45.0999 69.3008C44.8999 69.9008 44.6999 70.5009 44.3999 71.1009" stroke="#F74D18" stroke-width="2" stroke-miterlimit="10" stroke-linecap="round" stroke-linejoin="round"/>
<path d="M41.1999 59.6009C40.6999 59.3009 40.0999 59.0008 39.3999 58.8008" stroke="#F74D18" stroke-width="2" stroke-miterlimit="10" stroke-linecap="round" stroke-linejoin="round"/>
<path d="M34.8 58.9L35.1 55H39.2001L39.5 58.9" stroke="#F74D18" stroke-width="2" stroke-miterlimit="10" stroke-linecap="round" stroke-linejoin="round"/>
<path d="M29.8 62.8996L27.3 59.9996L30.2001 57.0996L33.1 59.5996" stroke="#F74D18" stroke-width="2" stroke-miterlimit="10" stroke-linecap="round" stroke-linejoin="round"/>
<path d="M29 69.2995L25.2 68.9996V64.8996L29 64.5996" stroke="#F74D18" stroke-width="2" stroke-miterlimit="10" stroke-linecap="round" stroke-linejoin="round"/>
<path d="M29.8 71.0996L27.3 73.9996L30.2001 76.8996L33.1 74.3996" stroke="#F74D18" stroke-width="2" stroke-miterlimit="10" stroke-linecap="round" stroke-linejoin="round"/>
<path d="M34.8 75.1992L35.1 78.9991H39.2001L39.5 75.1992" stroke="#F74D18" stroke-width="2" stroke-miterlimit="10" stroke-linecap="round" stroke-linejoin="round"/>
<path d="M44.4 71.0996L46.9 73.9996L44.0999 76.8996L41.2 74.3996" stroke="#F74D18" stroke-width="2" stroke-miterlimit="10" stroke-linecap="round" stroke-linejoin="round"/>
<path d="M45.1001 64.6992L48.9001 64.9991V69.0992L45.1001 69.3992" stroke="#F74D18" stroke-width="2" stroke-miterlimit="10" stroke-linecap="round" stroke-linejoin="round"/>
<path d="M41.2 59.5996L44.0999 57.0996L46.9 59.9996L44.4 62.8996" stroke="#F74D18" stroke-width="2" stroke-miterlimit="10" stroke-linecap="round" stroke-linejoin="round"/>
<path d="M37.1 71.2991C39.5 71.2991 41.4001 69.3991 41.4001 66.9991C41.4001 64.5991 39.5 62.6992 37.1 62.6992C34.7 62.6992 32.8 64.5991 32.8 66.9991C32.8 69.3991 34.7 71.2991 37.1 71.2991Z" fill="#F74D18"/>
<path d="M77.3999 66.8008V82.8008" stroke="#F74D18" stroke-width="2" stroke-miterlimit="10" stroke-linecap="round" stroke-linejoin="round"/>
<path d="M85.3999 74.8008H69.3999" stroke="#F74D18" stroke-width="2" stroke-miterlimit="10" stroke-linecap="round" stroke-linejoin="round"/>
<path d="M71.7 69.1992L83 80.4991" stroke="#F74D18" stroke-width="2" stroke-miterlimit="10" stroke-linecap="round" stroke-linejoin="round"/>
<path d="M83 69.1992L71.7 80.4991" stroke="#F74D18" stroke-width="2" stroke-miterlimit="10" stroke-linecap="round" stroke-linejoin="round"/>
<path d="M27.6001 21.5V37.5" stroke="#F74D18" stroke-width="2" stroke-miterlimit="10" stroke-linecap="round" stroke-linejoin="round"/>
<path d="M35.5 29.4004H19.5" stroke="#F74D18" stroke-width="2" stroke-miterlimit="10" stroke-linecap="round" stroke-linejoin="round"/>
<path d="M21.8999 23.9004L33.1999 35.2004" stroke="#F74D18" stroke-width="2" stroke-miterlimit="10" stroke-linecap="round" stroke-linejoin="round"/>
<path d="M33.1999 23.9004L21.8999 35.2004" stroke="#F74D18" stroke-width="2" stroke-miterlimit="10" stroke-linecap="round" stroke-linejoin="round"/>
</svg>
