<svg width="104" height="104" viewBox="0 0 104 104" fill="none" xmlns="http://www.w3.org/2000/svg">
<path d="M35.7126 25.1992H43.125H57.9501H87.6C89.8 25.1992 91.6001 26.9992 91.6001 29.1992V68.6992C91.6001 70.8992 89.8 72.6992 87.6 72.6992H28.3C26.1 72.6992 24.3 70.8992 24.3 68.6992V48.9492V41.0742" stroke="#F74D18" stroke-width="2" stroke-miterlimit="10" stroke-linecap="round" stroke-linejoin="round"/>
<path d="M46.7999 72.6992L31.7 87.6992" stroke="#F74D18" stroke-width="2" stroke-miterlimit="10" stroke-linecap="round" stroke-linejoin="round"/>
<path d="M85.8999 87.6992L70.8999 72.6992" stroke="#F74D18" stroke-width="2" stroke-miterlimit="10" stroke-linecap="round" stroke-linejoin="round"/>
<path d="M58.8 87.6992V72.6992" stroke="#F74D18" stroke-width="2" stroke-miterlimit="10" stroke-linecap="round" stroke-linejoin="round"/>
<path d="M69.4001 35.3008H77.9001L60.2001 53.0008L49.6001 42.4008L35.6001 56.5008" stroke="#F74D18" stroke-width="2" stroke-miterlimit="10" stroke-linecap="round" stroke-linejoin="round"/>
<path d="M77.8999 42.5008V35.3008" stroke="#F74D18" stroke-width="2" stroke-miterlimit="10" stroke-linecap="round" stroke-linejoin="round"/>
<path d="M40.5 31C40.5 38.4559 34.4559 44.5 27 44.5C19.5441 44.5 13.5 38.4559 13.5 31C13.5 23.5441 19.5441 17.5 27 17.5C34.4559 17.5 40.5 23.5441 40.5 31ZM29 23C29 22.1716 28.3284 21.5 27.5 21.5C26.6716 21.5 26 22.1716 26 23V24.2H25.6C23.3716 24.2 21.5 26.0716 21.5 28.3C21.5 30.4894 23.233 32.4 25.6 32.4H29.2C29.7716 32.4 30.3 32.9284 30.3 33.5C30.3 34.1071 29.8364 34.6 29.2 34.6H27.5079H27.5H27.4921H23C22.1716 34.6 21.5 35.2716 21.5 36.1C21.5 36.9284 22.1716 37.6 23 37.6H26V39.4C26 40.2284 26.6716 40.9 27.5 40.9C28.3284 40.9 29 40.2284 29 39.4V37.6H29.2C31.567 37.6 33.3 35.6894 33.3 33.5C33.3 31.2716 31.4284 29.4 29.2 29.4H25.6C24.9636 29.4 24.5 28.9071 24.5 28.3C24.5 27.7284 25.0284 27.2 25.6 27.2H30.8C31.6284 27.2 32.3 26.5284 32.3 25.7C32.3 24.8716 31.6284 24.2 30.8 24.2H29V23Z" fill="#F74D18" stroke="#F74D18"/>
<path d="M87.6 72.1996H28.3C26.3762 72.1996 24.8 70.6235 24.8 68.6996V65.0996H91.1001V68.6996C91.1001 70.6235 89.5239 72.1996 87.6 72.1996Z" fill="#F74D18" stroke="#F74D18"/>
</svg>
