<svg width="104" height="104" viewBox="0 0 104 104" fill="none" xmlns="http://www.w3.org/2000/svg">
<path d="M32.5001 68.7997C33.5001 64.1997 34.1001 59.2997 33.7001 54.6997C33.4001 50.0997 31.6001 46.2997 28.8001 42.6997C28.3001 42.0997 26.1001 39.7997 26.0001 39.0997C25.8001 38.2997 26.3001 36.5997 28.8001 37.9997C33.1001 40.4997 35.8001 44.4997 35.8001 44.4997" stroke="#F74D18" stroke-width="2" stroke-miterlimit="10" stroke-linecap="round" stroke-linejoin="round"/>
<path d="M51.8001 40.9008L51.6001 29.9008C51.8001 29.3008 52.4001 28.8008 53.1001 28.8008C53.9001 28.8008 54.5001 29.5008 54.5001 30.2008L56.1001 37.7008" stroke="#F74D18" stroke-width="2" stroke-miterlimit="10" stroke-linecap="round" stroke-linejoin="round"/>
<path d="M56.1001 37.6999L59.2001 24.8999C59.5001 24.0999 60.5001 23.6 61.4001 23.8C62.4001 24 63.0001 24.9999 62.7001 25.8999L61.1001 37.6999" stroke="#F74D18" stroke-width="2" stroke-miterlimit="10" stroke-linecap="round" stroke-linejoin="round"/>
<path d="M61.1001 37.8007L67.3001 23.7007C67.7001 22.9007 68.8001 22.4007 69.7001 22.6007C70.9001 22.9007 71.6001 24.0007 71.1001 25.1007L65.3001 39.3007" stroke="#F74D18" stroke-width="2" stroke-miterlimit="10" stroke-linecap="round" stroke-linejoin="round"/>
<path d="M65.3 39.6999L72.8 30.3C73.6 29.3 75.1 29.1999 75.9 30.1999C76.5 30.8999 76.5 31.9999 75.9 32.6999L66.3 45.3999L69.9 43.5999C70.7 43.1999 73.4 41.7999 75.1 41.5999C77 41.3999 78 43.7999 76.6 44.9999L68.4 51.8C66.5 53.4 65.9 55.9999 66.8 58.1999L71.2001 69.3" stroke="#F74D18" stroke-width="2" stroke-miterlimit="10" stroke-linecap="round" stroke-linejoin="round"/>
<path d="M59.9001 76.4991L52.4001 62.6992" stroke="#F74D18" stroke-width="2" stroke-miterlimit="10" stroke-linecap="round" stroke-linejoin="round"/>
<path d="M65.3001 92.6L56.8 78.5L74.5 67.5L87.6 89" fill="#F74D18"/>
<path d="M65.3001 92.6L56.8 78.5L74.5 67.5L87.6 89" stroke="#F74D18" stroke-width="2" stroke-miterlimit="10" stroke-linecap="round" stroke-linejoin="round"/>
<path d="M32.7001 97.1004L46.3001 79.2004L29.6001 67.4004L17.1001 86.5004L32.7001 97.1004Z" fill="#F74D18" stroke="#F74D18" stroke-width="2" stroke-miterlimit="10" stroke-linecap="round" stroke-linejoin="round"/>
<path d="M35.8001 44.5002L29.4001 32.6003C28.8001 31.8003 29.0001 30.8002 29.8001 30.2002C30.6001 29.6002 31.8001 29.7002 32.5001 30.5002L39.0001 40.3003" stroke="#F74D18" stroke-width="2" stroke-miterlimit="10" stroke-linecap="round" stroke-linejoin="round"/>
<path d="M38.9 40.2993L34.4 26.7993C33.8 25.7993 34.2 24.3993 35.3 23.8993C36.5 23.2993 38 23.7993 38.5 24.8993L43.9 39.6993" stroke="#F74D18" stroke-width="2" stroke-miterlimit="10" stroke-linecap="round" stroke-linejoin="round"/>
<path d="M43.9001 39.5995L43.1001 28.6994C42.9001 27.4994 43.8001 26.4995 44.9001 26.2995C46.0001 26.1995 47.1001 26.9995 47.2001 28.0995L49.0001 51.2995L52.3001 45.7995C53.7001 43.5995 54.9001 42.9994 56.4001 43.8994L56.9001 44.1994C57.4001 44.4994 57.7001 45.0994 57.5001 45.6994C56.4001 49.4994 52.2001 63.1994 50.3001 66.4994L42.1001 80.6994" stroke="#F74D18" stroke-width="2" stroke-miterlimit="10" stroke-linecap="round" stroke-linejoin="round"/>
<path d="M40.8999 11.9004L45.0999 18.9004" stroke="#F74D18" stroke-width="2" stroke-miterlimit="10" stroke-linecap="round" stroke-linejoin="round"/>
<path d="M59.9001 8.90039L55.6001 20.7004" stroke="#F74D18" stroke-width="2" stroke-miterlimit="10" stroke-linecap="round" stroke-linejoin="round"/>
<path d="M49.8 7L50.2001 13.6" stroke="#F74D18" stroke-width="2" stroke-miterlimit="10" stroke-linecap="round" stroke-linejoin="round"/>
<path d="M20.2 55.9C21.9673 55.9 23.4 54.4673 23.4 52.7C23.4 50.9327 21.9673 49.5 20.2 49.5C18.4327 49.5 17 50.9327 17 52.7C17 54.4673 18.4327 55.9 20.2 55.9Z" stroke="#F74D18" stroke-width="2" stroke-miterlimit="10" stroke-linecap="round" stroke-linejoin="round"/>
<path d="M79.3 56.4L80.2001 51.4L85.8 52.7L86.8 47" stroke="#F74D18" stroke-width="2" stroke-miterlimit="10" stroke-linecap="round" stroke-linejoin="round"/>
<path d="M19.5001 29.8995C20.8256 29.8995 21.9001 28.825 21.9001 27.4995C21.9001 26.174 20.8256 25.0996 19.5001 25.0996C18.1746 25.0996 17.1001 26.174 17.1001 27.4995C17.1001 28.825 18.1746 29.8995 19.5001 29.8995Z" fill="#F74D18"/>
<path d="M79.7002 23.4004C80.8047 23.4004 81.7002 22.505 81.7002 21.4004C81.7002 20.2958 80.8047 19.4004 79.7002 19.4004C78.5956 19.4004 77.7002 20.2958 77.7002 21.4004C77.7002 22.505 78.5956 23.4004 79.7002 23.4004Z" fill="#F74D18"/>
</svg>
