<svg width="22" height="20" viewBox="0 0 22 20" fill="none" xmlns="http://www.w3.org/2000/svg">
<path fill-rule="evenodd" clip-rule="evenodd" d="M11.2912 0.568131C10.7421 0.0189563 9.85168 0.0189563 9.30251 0.568131L0.865006 9.00563L0.848196 9.02272C0.31589 9.57313 0.321493 10.4509 0.865006 10.9944L9.30251 19.4319L9.3196 19.4487C9.87 19.981 10.7477 19.9754 11.2912 19.4319L11.3081 19.4148C11.8404 18.8644 11.8348 17.9866 11.2912 17.4431L5.25436 11.4062H20.1406L20.1639 11.4061C20.9298 11.3936 21.5469 10.7689 21.5469 10C21.5469 9.22335 20.9173 8.59375 20.1406 8.59375H5.25436L11.2912 2.55687L11.3081 2.53978C11.8404 1.98937 11.8348 1.11164 11.2912 0.568131Z" fill="#F74D18"/>
</svg>
