<svg width="206" height="55" viewBox="0 0 206 55" fill="none" xmlns="http://www.w3.org/2000/svg">
<g clip-path="url(#clip0_912_1538)">
<path d="M0 55.5324V47.9383C0 47.8359 0.0570094 47.7676 0.159626 47.7676H2.22565C4.92789 47.7676 6.26647 49.4908 6.26647 51.7353C6.26647 53.9799 4.92561 55.7031 2.22565 55.7031H0.159626C0.0570094 55.7031 0 55.6348 0 55.5324ZM2.20284 54.5694C4.08643 54.5694 4.9849 53.5269 4.9849 51.7353C4.9849 49.9438 4.08871 48.9012 2.20284 48.9012H1.27245V54.5672H2.20284V54.5694Z" fill="#F74D18"/>
<path d="M20.2905 55.5324V47.9383C20.2905 47.8359 20.3475 47.7676 20.4502 47.7676H21.3919C21.4946 47.7676 21.563 47.8359 21.563 47.9383V55.5324C21.563 55.6348 21.4946 55.7031 21.3919 55.7031H20.4502C20.3475 55.7031 20.2905 55.6348 20.2905 55.5324Z" fill="#F74D18"/>
<path d="M35.6421 51.7684C35.6421 49.4556 37.4139 47.6777 39.7194 47.6777C40.8322 47.6777 41.7398 48.0738 42.4444 48.7772C42.5357 48.8569 42.5357 48.9366 42.4558 49.0276L41.8766 49.6514C41.8082 49.731 41.7284 49.731 41.66 49.6628C41.115 49.1984 40.4788 48.9252 39.7194 48.9252C38.13 48.9252 36.9259 50.1385 36.9259 51.7707C36.9259 53.4029 38.13 54.6048 39.7764 54.6048C41.2176 54.6048 42.1503 53.6988 42.1617 52.5082H39.822C39.7194 52.5082 39.6624 52.4513 39.6624 52.3489V51.5339C39.6624 51.4315 39.7194 51.3746 39.822 51.3746H43.2289C43.3315 51.3746 43.3999 51.4429 43.3999 51.5453V52.1008C43.3999 54.1973 42.0157 55.8523 39.7445 55.8523C37.4732 55.8523 35.6467 54.0835 35.6467 51.773L35.6421 51.7684Z" fill="#F74D18"/>
<path d="M57.3652 55.5324V47.9383C57.3652 47.8359 57.4222 47.7676 57.5249 47.7676H58.4667C58.5693 47.7676 58.6377 47.8359 58.6377 47.9383V55.5324C58.6377 55.6348 58.5693 55.7031 58.4667 55.7031H57.5249C57.4222 55.7031 57.3652 55.6348 57.3652 55.5324Z" fill="#F74D18"/>
<path d="M74.5001 55.5307V48.8996H72.8764C72.7738 48.8996 72.7168 48.8313 72.7168 48.7289V47.9344C72.7168 47.832 72.7738 47.7637 72.8764 47.7637H77.3847C77.4873 47.7637 77.5558 47.832 77.5558 47.9344V48.7289C77.5558 48.8313 77.4873 48.8996 77.3847 48.8996H75.7725V55.5307C75.7725 55.6332 75.7041 55.7015 75.6015 55.7015H74.6597C74.5571 55.7015 74.5001 55.6332 74.5001 55.5307Z" fill="#F74D18"/>
<path d="M89.9995 55.5096L92.7017 47.9042C92.7359 47.8131 92.8158 47.7676 92.907 47.7676H93.94C94.0312 47.7676 94.1224 47.8131 94.1566 47.9042L96.8589 55.5096C96.9045 55.6234 96.8475 55.7031 96.722 55.7031H95.7346C95.6434 55.7031 95.575 55.6689 95.5408 55.5665L95.0756 54.1847H91.7827L91.3061 55.5665C91.2719 55.6689 91.2149 55.7031 91.1123 55.7031H90.1363C90.0109 55.7031 89.9539 55.6234 89.9995 55.5096ZM94.6879 53.0511L93.4269 49.3451L92.1658 53.0511H94.6857H94.6879Z" fill="#F74D18"/>
<path d="M110.721 55.5324V47.9383C110.721 47.8359 110.778 47.7676 110.881 47.7676H111.823C111.925 47.7676 111.994 47.8359 111.994 47.9383V54.5694H114.627C114.73 54.5694 114.799 54.6377 114.799 54.7402V55.5324C114.799 55.6348 114.73 55.7031 114.627 55.7031H110.881C110.778 55.7031 110.721 55.6348 110.721 55.5324Z" fill="#F74D18"/>
<path d="M143.55 55.5324V47.9383C143.55 47.8359 143.607 47.7676 143.709 47.7676H144.651C144.754 47.7676 144.822 47.8359 144.822 47.9383V54.5694H147.456C147.559 54.5694 147.627 54.6377 147.627 54.7402V55.5324C147.627 55.6348 147.559 55.7031 147.456 55.7031H143.709C143.607 55.7031 143.55 55.6348 143.55 55.5324Z" fill="#F74D18"/>
<path d="M161.195 55.5096L163.898 47.9042C163.932 47.8131 164.012 47.7676 164.103 47.7676H165.136C165.227 47.7676 165.318 47.8131 165.352 47.9042L168.055 55.5096C168.1 55.6234 168.043 55.7031 167.918 55.7031H166.93C166.839 55.7031 166.771 55.6689 166.737 55.5665L166.271 54.1847H162.979L162.502 55.5665C162.468 55.6689 162.411 55.7031 162.308 55.7031H161.332C161.207 55.7031 161.15 55.6234 161.195 55.5096ZM165.884 53.0511L164.623 49.3451L163.362 53.0511H165.881H165.884Z" fill="#F74D18"/>
<path d="M181.974 55.5324V47.9383C181.974 47.8359 182.031 47.7676 182.133 47.7676H184.642C186.163 47.7676 186.81 48.7191 186.81 49.7276C186.81 50.522 186.391 51.1549 185.72 51.4166C186.639 51.6443 187.31 52.3796 187.31 53.4677C187.31 54.7834 186.414 55.7008 184.573 55.7008H182.133C182.031 55.7008 181.974 55.6325 181.974 55.5301V55.5324ZM184.425 51.0092C185.152 51.0092 185.606 50.6358 185.606 49.9097C185.606 49.1835 185.152 48.8898 184.425 48.8898H183.221V51.0092H184.425ZM184.493 54.5786C185.469 54.5786 186.014 54.1483 186.014 53.2969C186.014 52.4456 185.469 52.004 184.493 52.004H183.221V54.5763H184.493V54.5786Z" fill="#F74D18"/>
<path d="M200.96 54.6237C200.903 54.544 200.903 54.4643 200.983 54.3733L201.46 53.8292C201.551 53.7268 201.642 53.7381 201.722 53.8178C202.187 54.3505 202.675 54.6669 203.426 54.6669C204.253 54.6669 204.766 54.2708 204.766 53.5788C204.766 52.8868 204.267 52.6273 203.597 52.3086L202.632 51.8556C201.793 51.4595 201.122 50.8585 201.122 49.7932C201.122 48.4546 202.167 47.6738 203.462 47.6738C204.392 47.6738 205.12 48.0472 205.699 48.705C205.79 48.7961 205.779 48.8758 205.699 48.9668L205.234 49.5223C205.154 49.6247 205.063 49.6247 204.974 49.545C204.509 49.0806 204.078 48.8416 203.51 48.8416C202.839 48.8416 202.363 49.1808 202.363 49.7932C202.363 50.3144 202.68 50.5762 203.339 50.8927L204.212 51.3001C205.108 51.7304 206.007 52.2744 206.007 53.5788C206.007 55.063 204.826 55.8347 203.441 55.8347C202.249 55.8347 201.421 55.2679 200.967 54.6214L200.96 54.6237Z" fill="#F74D18"/>
<path d="M24.8629 40.2034L13.9878 30.5083V40.0281H0.134521V0H49.589V40.0281H35.7357V30.5083L24.8606 40.2034H24.8629ZM36.7756 38.9901H48.5492V1.03576H1.17437V38.9947H12.9434V28.1954L24.8561 38.8194L36.7733 28.1954V38.9924L36.7756 38.9901Z" fill="#F74D18"/>
<path d="M157.494 40.2034L146.619 30.5083V40.0281H132.768V0H182.22V40.0259H168.367V30.506L157.492 40.2012L157.494 40.2034ZM169.407 38.9901H181.18V1.04031H133.806V38.9856H145.577V28.1886L157.49 38.8103L169.402 28.1886V38.9901H169.407Z" fill="#F74D18"/>
<path d="M75.4348 40.2034H55.9558V0H75.4348V40.2034ZM56.9934 39.1631H74.3972V1.04031H56.9934V39.1631Z" fill="#F74D18"/>
<path d="M205.293 40.2034H185.814V0H205.293V40.2034ZM186.852 39.1586H204.256V1.04487H186.852V39.1586Z" fill="#F74D18"/>
<path d="M130.654 40.2034H77.5579L104.106 0L130.654 40.2034ZM79.4779 39.1722H128.732L104.108 1.8803L79.4802 39.1722H79.4779Z" fill="#F74D18"/>
</g>
<defs>
<clipPath id="clip0_912_1538">
<rect width="206" height="55" fill="white"/>
</clipPath>
</defs>
</svg>
